<svg width="48" height="12" viewBox="0 0 96 24" xmlns="http://www.w3.org/2000/svg">
  <path d="M12 2l2.09 6.26H21l-5.09 3.7L18.18 18 12 13.98 5.82 18 8.09 11.96 3 8.26h6.91L12 2z" fill="#50C878"/>
  <path d="M36 2l2.09 6.26H45l-5.09 3.7L42.18 18 36 13.98 29.82 18 32.09 11.96 27 8.26h6.91L36 2z" fill="#50C878"/>
  <path d="M60 2l2.09 6.26H69l-5.09 3.7L66.18 18 60 13.98 53.82 18 56.09 11.96 51 8.26h6.91L60 2z" fill="#50C878"/>
  <path d="M84 2l2.09 6.26H93l-5.09 3.7L90.18 18 84 13.98 77.82 18 80.09 11.96 75 8.26h6.91L84 2z" fill="#50C878"/>
</svg>
